<?xml version="1.0" standalone="no"?>
<!DOCTYPE svg PUBLIC "-//W3C//DTD SVG 20010904//EN"
 "http://www.w3.org/TR/2001/REC-SVG-20010904/DTD/svg10.dtd">
<svg version="1.0" xmlns="http://www.w3.org/2000/svg"
 width="1024.000000pt" height="1024.000000pt" viewBox="0 0 1024.000000 1024.000000"
 preserveAspectRatio="xMidYMid meet">
<metadata>
Created by potrace 1.14, written by Peter Selinger 2001-2017
</metadata>
<g transform="translate(0.000000,1024.000000) scale(0.100000,-0.100000)"
fill="#000000" stroke="none">
<path d="M1970 10029 c-274 -19 -573 -112 -810 -251 -167 -99 -261 -172 -415
-325 -144 -142 -198 -211 -302 -388 -94 -161 -175 -364 -218 -547 -14 -63 -19
-97 -31 -228 -6 -62 -5 -6216 1 -6270 2 -19 6 -46 8 -60 3 -14 8 -56 12 -95
24 -261 166 -593 369 -863 160 -211 391 -414 607 -535 61 -34 243 -113 279
-122 8 -2 35 -11 60 -20 50 -18 235 -66 263 -68 9 -1 17 -4 17 -7 0 -4 110
-11 165 -10 11 0 1442 2 3180 3 1738 2 3174 7 3190 10 17 4 48 9 70 12 42 5
53 8 118 24 20 5 37 7 37 4 0 -3 7 0 15 7 8 7 15 10 15 6 0 -3 12 -1 28 5 15
6 34 12 42 14 23 5 129 46 158 61 15 8 31 14 36 14 10 0 174 80 191 93 24 19
115 75 115 72 0 -2 10 5 23 16 12 11 42 36 67 56 111 86 318 303 381 398 24
36 47 65 51 65 5 0 7 4 3 9 -3 5 -1 12 4 15 13 8 151 260 156 284 2 11 8 28
13 38 9 17 23 50 27 64 0 3 11 34 22 70 25 73 55 185 58 215 1 11 5 37 10 58
4 20 9 52 11 70 5 40 12 82 14 82 1 0 4 115 6 255 3 140 6 307 8 370 4 115 5
371 4 1625 0 369 0 886 1 1150 5 1691 3 2628 -4 2710 -4 33 -8 112 -9 176 -2
64 -6 122 -11 128 -4 7 -9 35 -11 63 -2 28 -8 56 -11 62 -4 6 -9 20 -11 31 -5
27 -8 37 -16 57 -4 9 -9 22 -10 30 -2 7 -6 20 -9 28 -4 8 -18 49 -33 90 -31
88 -93 216 -134 280 -16 25 -33 52 -37 60 -3 8 -9 17 -12 20 -3 3 -10 12 -16
21 -90 146 -262 331 -415 449 -25 19 -46 38 -48 43 -2 4 -10 7 -18 7 -8 0 -14
5 -14 10 0 6 -8 14 -17 17 -10 4 -58 32 -108 63 -86 54 -211 120 -227 120 -5
0 -27 9 -51 19 -59 27 -285 99 -327 105 -19 2 -35 5 -35 6 0 3 -38 9 -74 11
-20 2 -45 7 -56 13 -22 12 -6176 16 -6345 5z"/>
</g>
</svg>
